# xmcd
#
# Track frame offsets: 
#        150
#        12479
#        26313
#        39774
#        55213
#        71211
#        84167
#        98655
#        110383
#        125688
#        139555
#        155073
#        170066
#        183508
#        196913
#        206336
#
# Disc length: 2932 seconds
#
# Revision: 0
# Processed by: cddbd v1.5.2PL0 Copyright (c) Steve Scherf et al.
# Submitted via: ExactAudioCopy v0.95b4
#
DISCID=d20b7210
DTITLE=Django Reinhardt - Swing Guitars
DYEAR=1900
DGENRE=Blues
TTITLE0=Blues Clair
TTITLE1=Swing Guitars
TTITLE2=Viper's Dream
TTITLE3=Nuages
TTITLE4=Blues En Minor
TTITLE5=Minor Swing
TTITLE6=Les Yeux Noirs
TTITLE7=Swing 39
TTITLE8=Del Salle
TTITLE9=Swing 41
TTITLE10=Ol' Man River
TTITLE11=I Love You
TTITLE12=Swing Guitars
TTITLE13=R. Vingt-Six
TTITLE14=Improvisation
TTITLE15=Tiger Rag
EXTD=
EXTT0=
EXTT1=
EXTT2=
EXTT3=
EXTT4=
EXTT5=
EXTT6=
EXTT7=
EXTT8=
EXTT9=
EXTT10=
EXTT11=
EXTT12=
EXTT13=
EXTT14=
EXTT15=
PLAYORDER=
